<svg width="19" height="20" viewBox="0 0 19 20" fill="none" xmlns="http://www.w3.org/2000/svg">
<path d="M18.5967 7.41927C18.539 7.24946 18.4329 7.10025 18.2914 6.99006C18.1499 6.87987 17.9793 6.81353 17.8005 6.79922L12.5714 6.38371L10.3086 1.3747C10.2365 1.21337 10.1193 1.07634 9.97106 0.980156C9.82284 0.883971 9.64995 0.832739 9.47326 0.832642C9.29657 0.832545 9.12362 0.883587 8.9753 0.979609C8.82697 1.07563 8.7096 1.21253 8.63736 1.37378L6.37455 6.38371L1.14539 6.79922C0.969704 6.81314 0.801742 6.87738 0.661604 6.98425C0.521466 7.09113 0.415087 7.23612 0.355191 7.40187C0.295296 7.56762 0.284422 7.74712 0.323869 7.91889C0.363317 8.09066 0.451416 8.24743 0.577627 8.37044L4.44193 12.1375L3.07526 18.0555C3.03376 18.2347 3.04706 18.4221 3.11343 18.5936C3.1798 18.7651 3.29618 18.9127 3.44747 19.0172C3.59876 19.1217 3.77797 19.1783 3.96184 19.1797C4.14571 19.1811 4.32576 19.1272 4.47862 19.025L9.47296 15.6955L14.4673 19.025C14.6235 19.1288 14.8078 19.1822 14.9953 19.1781C15.1828 19.1739 15.3645 19.1125 15.5161 19.002C15.6676 18.8916 15.7817 18.7373 15.8429 18.5601C15.9042 18.3828 15.9097 18.1911 15.8587 18.0106L14.1811 12.1403L18.3417 8.39612C18.6141 8.15031 18.7141 7.7669 18.5967 7.41927V7.41927Z" fill="#F3CD03"/>
</svg>
