<svg width="19" height="20" viewBox="0 0 19 20" fill="none" xmlns="http://www.w3.org/2000/svg">
<path d="M4.49772 12.1376L3.13104 18.0556C3.08872 18.2348 3.10143 18.4226 3.1675 18.5945C3.23357 18.7663 3.34993 18.9143 3.50139 19.019C3.65285 19.1237 3.83237 19.1803 4.0165 19.1814C4.20062 19.1825 4.3808 19.128 4.53349 19.0251L9.52783 15.6956L14.5222 19.0251C14.6784 19.1289 14.8627 19.1823 15.0502 19.1781C15.2377 19.174 15.4194 19.1126 15.5709 19.0021C15.7225 18.8916 15.8365 18.7374 15.8978 18.5602C15.9591 18.3829 15.9646 18.1911 15.9136 18.0107L14.236 12.1404L18.3966 8.39622C18.5298 8.27623 18.625 8.11982 18.6703 7.94632C18.7156 7.77283 18.709 7.58986 18.6515 7.42004C18.5939 7.25023 18.4878 7.10101 18.3463 6.99085C18.2048 6.88069 18.0342 6.81442 17.8554 6.80023L12.6263 6.3838L10.3634 1.37479C10.2913 1.2135 10.174 1.07654 10.0257 0.980432C9.87744 0.884329 9.70453 0.833191 9.52783 0.833191C9.35114 0.833191 9.17822 0.884329 9.02995 0.980432C8.88168 1.07654 8.76439 1.2135 8.69223 1.37479L6.42942 6.3838L1.20027 6.79931C1.02457 6.81323 0.856613 6.87747 0.716475 6.98434C0.576337 7.09122 0.469957 7.23621 0.410062 7.40196C0.350167 7.56771 0.339292 7.74721 0.37874 7.91898C0.418188 8.09075 0.506287 8.24752 0.632498 8.37053L4.49772 12.1376V12.1376ZM7.11459 8.16966C7.27831 8.15676 7.43555 8.10005 7.56982 8.00549C7.70408 7.91092 7.81044 7.78197 7.87773 7.63216L9.52783 3.98065L11.1779 7.63216C11.2452 7.78197 11.3516 7.91092 11.4858 8.00549C11.6201 8.10005 11.7774 8.15676 11.9411 8.16966L15.5843 8.45859L12.5841 11.1589C12.3236 11.3937 12.2199 11.7551 12.3153 12.0927L13.4646 16.1147L10.0378 13.8299C9.88741 13.729 9.71036 13.6751 9.52921 13.6751C9.34806 13.6751 9.17101 13.729 9.0206 13.8299L5.43972 16.2175L6.40282 12.0477C6.43813 11.8944 6.43339 11.7345 6.38906 11.5835C6.34472 11.4325 6.26228 11.2954 6.14966 11.1855L3.3631 8.46868L7.11459 8.16966V8.16966Z" fill="#F3CD03"/>
</svg>
