<svg width="24" height="28" viewBox="0 0 24 28" fill="none" xmlns="http://www.w3.org/2000/svg">
<path d="M2.34839 28H21.6517C22.8003 28 23.7565 27.1215 23.7565 26.0419V2.62855C23.7565 1.54866 22.8003 0.660889 21.6517 0.660889H18.4696V2.44866C18.4742 2.75899 18.2294 3.01578 17.9193 3.02611H6.04296C5.72665 3.0185 5.47122 2.76496 5.46089 2.44866V0.660889H2.34839C1.19975 0.660889 0.2435 1.54866 0.2435 2.62855V26.0419C0.2435 27.1215 1.19975 28 2.34839 28ZM6.6435 10.0522C6.6435 9.74486 6.89268 9.49567 7.20002 9.49567H10.0522V6.6435C10.0522 6.33616 10.3014 6.08698 10.6087 6.08698H13.3913C13.6987 6.08698 13.9478 6.33616 13.9478 6.6435V9.49567H16.8C17.1074 9.49567 17.3565 9.74486 17.3565 10.0522V12.8348C17.3565 13.1421 17.1074 13.3913 16.8 13.3913H13.9478V16.2435C13.9478 16.5508 13.6987 16.8 13.3913 16.8H10.6087C10.3014 16.8 10.0522 16.5508 10.0522 16.2435V13.3913H7.20002C6.89268 13.3913 6.6435 13.1421 6.6435 12.8348V10.0522ZM6.87013 19.6522H17.1299C17.4375 19.6522 17.6864 19.9014 17.6864 20.2087C17.6864 20.5161 17.4375 20.7652 17.1299 20.7652H6.87013C6.56252 20.7652 6.31361 20.5161 6.31361 20.2087C6.31361 19.9014 6.56252 19.6522 6.87013 19.6522ZM4.78317 22.4348H19.2169C19.5245 22.4348 19.7734 22.684 19.7734 22.9913C19.7734 23.2987 19.5245 23.5478 19.2169 23.5478H4.78317C4.47556 23.5478 4.22665 23.2987 4.22665 22.9913C4.22665 22.684 4.47556 22.4348 4.78317 22.4348Z" fill="white"/>
</svg>
